{
	"asset":{
		"generator":"Khronos glTF Blender I/O v4.3.47",
		"version":"2.0"
	},
	"scene":0,
	"scenes":[
		{
			"name":"Scene",
			"nodes":[
				0
			]
		}
	],
	"nodes":[
		{
			"mesh":0,
			"name":"Cube"
		}
	],
	"materials":[
		{
			"doubleSided":true,
			"name":"M_Cube",
			"pbrMetallicRoughness":{
				"baseColorTexture":{
					"index":0
				},
				"metallicFactor":0
			}
		}
	],
	"meshes":[
		{
			"name":"Cube.002",
			"primitives":[
				{
					"attributes":{
						"POSITION":0,
						"NORMAL":1,
						"TEXCOORD_0":2
					},
					"indices":3,
					"material":0
				}
			]
		}
	],
	"textures":[
		{
			"sampler":0,
			"source":0
		}
	],
	"images":[
		{
			"mimeType":"image/jpeg",
			"name":"1",
			"uri":"1.jpg"
		},
		{
			"mimeType":"image/png",
			"name":"alloy_metallicRoughness",
			"uri":"alloy_metallicRoughness.png"
		},
		{
			"mimeType":"image/png",
			"name":"headlights_normal",
			"uri":"headlights_normal.png"
		},
		{
			"mimeType":"image/png",
			"name":"license_baseColor",
			"uri":"license_baseColor.png"
		},
		{
			"mimeType":"image/png",
			"name":"Plane.035__0_baseColor",
			"uri":"Plane_035__0_baseColor.png"
		},
		{
			"mimeType":"image/png",
			"name":"Plane.035__0_metallicRoughness",
			"uri":"Plane_035__0_metallicRoughness.png"
		},
		{
			"mimeType":"image/png",
			"name":"stickers_baseColor",
			"uri":"stickers_baseColor.png"
		},
		{
			"mimeType":"image/png",
			"name":"tire_metallicRoughness",
			"uri":"tire_metallicRoughness.png"
		}
	],
	"accessors":[
		{
			"bufferView":0,
			"componentType":5126,
			"count":24,
			"max":[
				1,
				1,
				1
			],
			"min":[
				-1,
				-1,
				-1
			],
			"type":"VEC3"
		},
		{
			"bufferView":1,
			"componentType":5126,
			"count":24,
			"type":"VEC3"
		},
		{
			"bufferView":2,
			"componentType":5126,
			"count":24,
			"type":"VEC2"
		},
		{
			"bufferView":3,
			"componentType":5123,
			"count":36,
			"type":"SCALAR"
		}
	],
	"bufferViews":[
		{
			"buffer":0,
			"byteLength":288,
			"byteOffset":0,
			"target":34962
		},
		{
			"buffer":0,
			"byteLength":288,
			"byteOffset":288,
			"target":34962
		},
		{
			"buffer":0,
			"byteLength":192,
			"byteOffset":576,
			"target":34962
		},
		{
			"buffer":0,
			"byteLength":72,
			"byteOffset":768,
			"target":34963
		}
	],
	"samplers":[
		{
			"magFilter":9729,
			"minFilter":9987
		}
	],
	"buffers":[
		{
			"byteLength":840,
			"uri":"brick.bin"
		}
	]
}
