{
	"asset":{
		"generator":"Khronos glTF Blender I/O v3.5.30",
		"version":"2.0"
	},
	"scene":0,
	"scenes":[
		{
			"name":"Scene",
			"nodes":[
				0
			]
		}
	],
	"nodes":[
		{
			"mesh":0,
			"name":"Sphere"
		}
	],
	"meshes":[
		{
			"name":"Sphere",
			"primitives":[
				{
					"attributes":{
						"POSITION":0,
						"TEXCOORD_0":1,
						"NORMAL":2
					},
					"indices":3
				}
			]
		}
	],
	"accessors":[
		{
			"bufferView":0,
			"componentType":5126,
			"count":73250,
			"max":[
				0.9996766448020935,
				1,
				0.9996353387832642
			],
			"min":[
				-0.9996806383132935,
				-1,
				-0.9996974468231201
			],
			"type":"VEC3"
		},
		{
			"bufferView":1,
			"componentType":5126,
			"count":73250,
			"type":"VEC2"
		},
		{
			"bufferView":2,
			"componentType":5126,
			"count":73250,
			"type":"VEC3"
		},
		{
			"bufferView":3,
			"componentType":5125,
			"count":108996,
			"type":"SCALAR"
		}
	],
	"bufferViews":[
		{
			"buffer":0,
			"byteLength":879000,
			"byteOffset":0,
			"target":34962
		},
		{
			"buffer":0,
			"byteLength":586000,
			"byteOffset":879000,
			"target":34962
		},
		{
			"buffer":0,
			"byteLength":879000,
			"byteOffset":1465000,
			"target":34962
		},
		{
			"buffer":0,
			"byteLength":435984,
			"byteOffset":2344000,
			"target":34963
		}
	],
	"buffers":[
		{
			"byteLength":2779984,
			"uri":"data:application/octet-stream;base64,"
		}
	]
}
