# Blender 4.1.1
# www.blender.org
mtllib sphere.mtl
o Sphere
v 0.000000 0.500000 -0.866025
v 0.000000 0.173648 -0.984808
v 0.000000 -0.173648 -0.984808
v 0.000000 -0.500000 -0.866025
v 0.000000 -0.939693 -0.342020
v 0.130885 0.939693 -0.315985
v 0.245984 0.766044 -0.593858
v 0.331414 0.500000 -0.800103
v 0.376870 0.173648 -0.909844
v 0.376870 -0.173648 -0.909844
v 0.331414 -0.500000 -0.800103
v 0.245984 -0.766044 -0.593858
v 0.130885 -0.939693 -0.315985
v 0.241845 0.939693 -0.241845
v 0.454520 0.766044 -0.454519
v 0.612372 0.500000 -0.612372
v 0.696364 0.173648 -0.696364
v 0.696364 -0.173648 -0.696364
v 0.612372 -0.500000 -0.612372
v 0.454520 -0.766044 -0.454519
v 0.241845 -0.939693 -0.241845
v 0.315985 0.939693 -0.130885
v 0.593858 0.766044 -0.245984
v 0.800103 0.500000 -0.331413
v 0.909844 0.173648 -0.376869
v 0.909844 -0.173648 -0.376869
v 0.800103 -0.500000 -0.331413
v 0.593858 -0.766044 -0.245984
v 0.315985 -0.939693 -0.130885
v 0.342020 0.939693 0.000000
v 0.642788 0.766044 0.000000
v 0.866025 0.500000 0.000000
v 0.984808 0.173648 0.000000
v 0.984808 -0.173648 0.000000
v 0.866025 -0.500000 0.000000
v 0.642788 -0.766044 0.000000
v 0.342020 -0.939693 0.000000
v 0.315985 0.939693 0.130885
v 0.593858 0.766044 0.245984
v 0.800103 0.500000 0.331414
v 0.909844 0.173648 0.376870
v 0.909844 -0.173648 0.376870
v 0.800103 -0.500000 0.331414
v 0.593858 -0.766044 0.245984
v 0.315985 -0.939693 0.130885
v 0.241845 0.939693 0.241845
v 0.454519 0.766044 0.454520
v 0.612372 0.500000 0.612373
v 0.696364 0.173648 0.696364
v 0.696364 -0.173648 0.696364
v 0.612372 -0.500000 0.612373
v 0.454519 -0.766044 0.454520
v 0.241845 -0.939693 0.241845
v 0.130885 0.939693 0.315985
v 0.245984 0.766044 0.593858
v 0.331413 0.500000 0.800103
v 0.376869 0.173648 0.909844
v 0.376869 -0.173648 0.909844
v 0.331413 -0.500000 0.800103
v 0.245984 -0.766044 0.593858
v 0.130885 -0.939693 0.315985
v -0.000000 0.939693 0.342020
v -0.000000 0.766044 0.642788
v -0.000000 0.500000 0.866025
v -0.000000 0.173648 0.984808
v -0.000000 -0.173648 0.984808
v -0.000000 -0.500000 0.866025
v -0.000000 -0.766044 0.642788
v -0.000000 -0.939693 0.342020
v 0.000000 1.000000 0.000000
v -0.130885 0.939693 0.315985
v -0.245984 0.766044 0.593858
v -0.331414 0.500000 0.800103
v -0.376870 0.173648 0.909843
v -0.376870 -0.173648 0.909843
v -0.331414 -0.500000 0.800103
v -0.245984 -0.766044 0.593858
v -0.130885 -0.939693 0.315985
v -0.241845 0.939693 0.241845
v -0.454520 0.766044 0.454519
v -0.612373 0.500000 0.612372
v -0.696364 0.173648 0.696364
v -0.696364 -0.173648 0.696364
v -0.612373 -0.500000 0.612372
v -0.454520 -0.766044 0.454519
v -0.241845 -0.939693 0.241845
v 0.000000 -1.000000 0.000000
v -0.315985 0.939693 0.130885
v -0.593858 0.766044 0.245984
v -0.800103 0.500000 0.331413
v -0.909844 0.173648 0.376869
v -0.909844 -0.173648 0.376869
v -0.800103 -0.500000 0.331413
v -0.593858 -0.766044 0.245984
v -0.315985 -0.939693 0.130885
v -0.342020 0.939693 -0.000000
v -0.642788 0.766044 -0.000000
v -0.866025 0.500000 -0.000000
v -0.984807 0.173648 -0.000000
v -0.984807 -0.173648 -0.000000
v -0.866025 -0.500000 -0.000000
v -0.642788 -0.766044 -0.000000
v -0.342020 -0.939693 -0.000000
v -0.315985 0.939693 -0.130886
v -0.593858 0.766044 -0.245984
v -0.800103 0.500000 -0.331414
v -0.909843 0.173648 -0.376870
v -0.909843 -0.173648 -0.376870
v -0.800103 -0.500000 -0.331414
v -0.593858 -0.766044 -0.245984
v -0.315985 -0.939693 -0.130886
v -0.241845 0.939693 -0.241845
v -0.454519 0.766044 -0.454520
v -0.612372 0.500000 -0.612373
v -0.696364 0.173648 -0.696364
v -0.696364 -0.173648 -0.696364
v -0.612372 -0.500000 -0.612373
v -0.454519 -0.766044 -0.454520
v -0.241845 -0.939693 -0.241845
v -0.130885 0.939693 -0.315985
v -0.245984 0.766044 -0.593858
v -0.331413 0.500000 -0.800103
v -0.376869 0.173648 -0.909844
v -0.376869 -0.173648 -0.909844
v -0.331413 -0.500000 -0.800103
v -0.245984 -0.766044 -0.593858
v -0.130885 -0.939693 -0.315985
v 0.000000 0.939693 -0.342020
v 0.000000 0.766044 -0.642787
v 0.000000 -0.766044 -0.642787
vn -0.0000 0.4909 -0.8712
vn -0.0000 0.1701 -0.9854
vn -0.0000 -0.1701 -0.9854
vn -0.0000 -0.4909 -0.8712
vn -0.0000 -0.9326 -0.3609
vn 0.1381 0.9326 -0.3334
vn 0.2507 0.7555 -0.6053
vn 0.3334 0.4909 -0.8049
vn 0.3771 0.1701 -0.9104
vn 0.3771 -0.1701 -0.9104
vn 0.3334 -0.4909 -0.8049
vn 0.2507 -0.7555 -0.6053
vn 0.1381 -0.9326 -0.3334
vn 0.2552 0.9326 -0.2552
vn 0.4633 0.7555 -0.4633
vn 0.6161 0.4909 -0.6161
vn 0.6968 0.1701 -0.6968
vn 0.6968 -0.1701 -0.6968
vn 0.6161 -0.4909 -0.6161
vn 0.4633 -0.7555 -0.4633
vn 0.2552 -0.9326 -0.2552
vn 0.3334 0.9326 -0.1381
vn 0.6053 0.7555 -0.2507
vn 0.8049 0.4909 -0.3334
vn 0.9104 0.1701 -0.3771
vn 0.9104 -0.1701 -0.3771
vn 0.8049 -0.4909 -0.3334
vn 0.6053 -0.7555 -0.2507
vn 0.3334 -0.9326 -0.1381
vn 0.3609 0.9326 -0.0000
vn 0.6551 0.7555 -0.0000
vn 0.8712 0.4909 -0.0000
vn 0.9854 0.1701 -0.0000
vn 0.9854 -0.1701 -0.0000
vn 0.8712 -0.4909 -0.0000
vn 0.6551 -0.7555 -0.0000
vn 0.3609 -0.9326 -0.0000
vn 0.3334 0.9326 0.1381
vn 0.6053 0.7555 0.2507
vn 0.8049 0.4909 0.3334
vn 0.9104 0.1701 0.3771
vn 0.9104 -0.1701 0.3771
vn 0.8049 -0.4909 0.3334
vn 0.6053 -0.7555 0.2507
vn 0.3334 -0.9326 0.1381
vn 0.2552 0.9326 0.2552
vn 0.4633 0.7555 0.4633
vn 0.6161 0.4909 0.6161
vn 0.6968 0.1701 0.6968
vn 0.6968 -0.1701 0.6968
vn 0.6161 -0.4909 0.6161
vn 0.4633 -0.7555 0.4633
vn 0.2552 -0.9326 0.2552
vn 0.1381 0.9326 0.3334
vn 0.2507 0.7555 0.6053
vn 0.3334 0.4909 0.8049
vn 0.3771 0.1701 0.9104
vn 0.3771 -0.1701 0.9104
vn 0.3334 -0.4909 0.8049
vn 0.2507 -0.7555 0.6053
vn 0.1381 -0.9326 0.3334
vn -0.0000 0.9326 0.3609
vn -0.0000 0.7555 0.6551
vn -0.0000 0.4909 0.8712
vn -0.0000 0.1701 0.9854
vn -0.0000 -0.1701 0.9854
vn -0.0000 -0.4909 0.8712
vn -0.0000 -0.7555 0.6551
vn -0.0000 -0.9326 0.3609
vn -0.0000 1.0000 -0.0000
vn -0.1381 0.9326 0.3334
vn -0.2507 0.7555 0.6053
vn -0.3334 0.4909 0.8049
vn -0.3771 0.1701 0.9104
vn -0.3771 -0.1701 0.9104
vn -0.3334 -0.4909 0.8049
vn -0.2507 -0.7555 0.6053
vn -0.1381 -0.9326 0.3334
vn -0.2552 0.9326 0.2552
vn -0.4633 0.7555 0.4633
vn -0.6161 0.4909 0.6161
vn -0.6968 0.1701 0.6968
vn -0.6968 -0.1701 0.6968
vn -0.6161 -0.4909 0.6161
vn -0.4633 -0.7555 0.4633
vn -0.2552 -0.9326 0.2552
vn -0.0000 -1.0000 -0.0000
vn -0.3334 0.9326 0.1381
vn -0.6053 0.7555 0.2507
vn -0.8049 0.4909 0.3334
vn -0.9104 0.1701 0.3771
vn -0.9104 -0.1701 0.3771
vn -0.8049 -0.4909 0.3334
vn -0.6053 -0.7555 0.2507
vn -0.3334 -0.9326 0.1381
vn -0.3609 0.9326 -0.0000
vn -0.6551 0.7555 -0.0000
vn -0.8712 0.4909 -0.0000
vn -0.9854 0.1701 -0.0000
vn -0.9854 -0.1701 -0.0000
vn -0.8712 -0.4909 -0.0000
vn -0.6551 -0.7555 -0.0000
vn -0.3609 -0.9326 -0.0000
vn -0.3334 0.9326 -0.1381
vn -0.6053 0.7555 -0.2507
vn -0.8049 0.4909 -0.3334
vn -0.9104 0.1701 -0.3771
vn -0.9104 -0.1701 -0.3771
vn -0.8049 -0.4909 -0.3334
vn -0.6053 -0.7555 -0.2507
vn -0.3334 -0.9326 -0.1381
vn -0.2552 0.9326 -0.2552
vn -0.4633 0.7555 -0.4633
vn -0.6161 0.4909 -0.6161
vn -0.6968 0.1701 -0.6968
vn -0.6968 -0.1701 -0.6968
vn -0.6161 -0.4909 -0.6161
vn -0.4633 -0.7555 -0.4633
vn -0.2552 -0.9326 -0.2552
vn -0.1381 0.9326 -0.3334
vn -0.2507 0.7555 -0.6053
vn -0.3334 0.4909 -0.8049
vn -0.3771 0.1701 -0.9104
vn -0.3771 -0.1701 -0.9104
vn -0.3334 -0.4909 -0.8049
vn -0.2507 -0.7555 -0.6053
vn -0.1381 -0.9326 -0.3334
vn -0.0000 0.9326 -0.3609
vn -0.0000 0.7555 -0.6551
vn -0.0000 -0.7555 -0.6551
vt 0.750000 0.777778
vt 0.750000 0.888889
vt 0.687500 0.888889
vt 0.687500 0.777778
vt 0.718750 0.000000
vt 0.750000 0.111111
vt 0.687500 0.111111
vt 0.750000 0.333333
vt 0.750000 0.444444
vt 0.687500 0.444444
vt 0.687500 0.333333
vt 0.750000 0.666667
vt 0.687500 0.666667
vt 0.750000 0.222222
vt 0.687500 0.222222
vt 0.750000 0.555556
vt 0.687500 0.555556
vt 0.718750 1.000000
vt 0.625000 0.777778
vt 0.625000 0.666667
vt 0.625000 0.333333
vt 0.625000 0.222222
vt 0.625000 0.555556
vt 0.656250 1.000000
vt 0.625000 0.888889
vt 0.625000 0.111111
vt 0.625000 0.444444
vt 0.656250 0.000000
vt 0.593750 1.000000
vt 0.562500 0.888889
vt 0.562500 0.222222
vt 0.562500 0.111111
vt 0.562500 0.555556
vt 0.562500 0.444444
vt 0.562500 0.777778
vt 0.593750 0.000000
vt 0.562500 0.333333
vt 0.562500 0.666667
vt 0.500000 0.444444
vt 0.500000 0.333333
vt 0.500000 0.777778
vt 0.500000 0.666667
vt 0.500000 0.222222
vt 0.500000 0.555556
vt 0.531250 1.000000
vt 0.500000 0.888889
vt 0.500000 0.111111
vt 0.531250 0.000000
vt 0.437500 0.666667
vt 0.437500 0.555556
vt 0.468750 1.000000
vt 0.437500 0.888889
vt 0.437500 0.222222
vt 0.437500 0.111111
vt 0.437500 0.444444
vt 0.437500 0.777778
vt 0.468750 0.000000
vt 0.437500 0.333333
vt 0.375000 0.888889
vt 0.375000 0.777778
vt 0.406250 0.000000
vt 0.375000 0.111111
vt 0.375000 0.444444
vt 0.375000 0.333333
vt 0.375000 0.666667
vt 0.375000 0.222222
vt 0.375000 0.555556
vt 0.406250 1.000000
vt 0.312500 0.333333
vt 0.312500 0.222222
vt 0.312500 0.666667
vt 0.312500 0.555556
vt 0.343750 1.000000
vt 0.312500 0.888889
vt 0.312500 0.111111
vt 0.312500 0.444444
vt 0.312500 0.777778
vt 0.343750 0.000000
vt 0.250000 0.222222
vt 0.250000 0.111111
vt 0.250000 0.555556
vt 0.250000 0.444444
vt 0.250000 0.888889
vt 0.250000 0.777778
vt 0.281250 0.000000
vt 0.250000 0.333333
vt 0.250000 0.666667
vt 0.281250 1.000000
vt 0.187500 0.444444
vt 0.187500 0.333333
vt 0.187500 0.777778
vt 0.187500 0.666667
vt 0.187500 0.222222
vt 0.187500 0.555556
vt 0.218750 1.000000
vt 0.187500 0.888889
vt 0.187500 0.111111
vt 0.218750 0.000000
vt 0.125000 0.666667
vt 0.125000 0.555556
vt 0.156250 1.000000
vt 0.125000 0.888889
vt 0.125000 0.222222
vt 0.125000 0.111111
vt 0.125000 0.444444
vt 0.125000 0.777778
vt 0.156250 0.000000
vt 0.125000 0.333333
vt 0.062500 0.888889
vt 0.062500 0.777778
vt 0.093750 0.000000
vt 0.062500 0.111111
vt 0.062500 0.444444
vt 0.062500 0.333333
vt 0.062500 0.666667
vt 0.062500 0.222222
vt 0.062500 0.555556
vt 0.093750 1.000000
vt 0.000000 0.333333
vt 0.000000 0.222222
vt 0.000000 0.666667
vt 0.000000 0.555556
vt 0.031250 1.000000
vt 0.000000 0.888889
vt 0.000000 0.111111
vt 0.000000 0.444444
vt 0.000000 0.777778
vt 0.031250 0.000000
vt 1.000000 0.444444
vt 1.000000 0.555556
vt 0.937500 0.555556
vt 0.937500 0.444444
vt 1.000000 0.777778
vt 1.000000 0.888889
vt 0.937500 0.888889
vt 0.937500 0.777778
vt 0.968750 0.000000
vt 1.000000 0.111111
vt 0.937500 0.111111
vt 1.000000 0.333333
vt 0.937500 0.333333
vt 1.000000 0.666667
vt 0.937500 0.666667
vt 1.000000 0.222222
vt 0.937500 0.222222
vt 0.968750 1.000000
vt 0.875000 0.777778
vt 0.875000 0.666667
vt 0.875000 0.333333
vt 0.875000 0.222222
vt 0.875000 0.555556
vt 0.906250 1.000000
vt 0.875000 0.888889
vt 0.875000 0.111111
vt 0.875000 0.444444
vt 0.906250 0.000000
vt 0.843750 1.000000
vt 0.812500 0.888889
vt 0.812500 0.222222
vt 0.812500 0.111111
vt 0.812500 0.555556
vt 0.812500 0.444444
vt 0.812500 0.777778
vt 0.843750 0.000000
vt 0.812500 0.333333
vt 0.812500 0.666667
vt 0.781250 0.000000
vt 0.781250 1.000000
s 1
f 129/1/129 128/2/128 6/3/6 7/4/7
f 87/5/87 5/6/5 13/7/13
f 4/8/4 3/9/3 10/10/10 11/11/11
f 1/12/1 129/1/129 7/4/7 8/13/8
f 130/14/130 4/8/4 11/11/11 12/15/12
f 2/16/2 1/12/1 8/13/8 9/17/9
f 128/2/128 70/18/70 6/3/6
f 5/6/5 130/14/130 12/15/12 13/7/13
f 3/9/3 2/16/2 9/17/9 10/10/10
f 8/13/8 7/4/7 15/19/15 16/20/16
f 12/15/12 11/11/11 19/21/19 20/22/20
f 9/17/9 8/13/8 16/20/16 17/23/17
f 6/3/6 70/24/70 14/25/14
f 13/7/13 12/15/12 20/22/20 21/26/21
f 10/10/10 9/17/9 17/23/17 18/27/18
f 7/4/7 6/3/6 14/25/14 15/19/15
f 87/28/87 13/7/13 21/26/21
f 11/11/11 10/10/10 18/27/18 19/21/19
f 14/25/14 70/29/70 22/30/22
f 21/26/21 20/22/20 28/31/28 29/32/29
f 18/27/18 17/23/17 25/33/25 26/34/26
f 15/19/15 14/25/14 22/30/22 23/35/23
f 87/36/87 21/26/21 29/32/29
f 19/21/19 18/27/18 26/34/26 27/37/27
f 16/20/16 15/19/15 23/35/23 24/38/24
f 20/22/20 19/21/19 27/37/27 28/31/28
f 17/23/17 16/20/16 24/38/24 25/33/25
f 27/37/27 26/34/26 34/39/34 35/40/35
f 24/38/24 23/35/23 31/41/31 32/42/32
f 28/31/28 27/37/27 35/40/35 36/43/36
f 25/33/25 24/38/24 32/42/32 33/44/33
f 22/30/22 70/45/70 30/46/30
f 29/32/29 28/31/28 36/43/36 37/47/37
f 26/34/26 25/33/25 33/44/33 34/39/34
f 23/35/23 22/30/22 30/46/30 31/41/31
f 87/48/87 29/32/29 37/47/37
f 33/44/33 32/42/32 40/49/40 41/50/41
f 30/46/30 70/51/70 38/52/38
f 37/47/37 36/43/36 44/53/44 45/54/45
f 34/39/34 33/44/33 41/50/41 42/55/42
f 31/41/31 30/46/30 38/52/38 39/56/39
f 87/57/87 37/47/37 45/54/45
f 35/40/35 34/39/34 42/55/42 43/58/43
f 32/42/32 31/41/31 39/56/39 40/49/40
f 36/43/36 35/40/35 43/58/43 44/53/44
f 39/56/39 38/52/38 46/59/46 47/60/47
f 87/61/87 45/54/45 53/62/53
f 43/58/43 42/55/42 50/63/50 51/64/51
f 40/49/40 39/56/39 47/60/47 48/65/48
f 44/53/44 43/58/43 51/64/51 52/66/52
f 41/50/41 40/49/40 48/65/48 49/67/49
f 38/52/38 70/68/70 46/59/46
f 45/54/45 44/53/44 52/66/52 53/62/53
f 42/55/42 41/50/41 49/67/49 50/63/50
f 52/66/52 51/64/51 59/69/59 60/70/60
f 49/67/49 48/65/48 56/71/56 57/72/57
f 46/59/46 70/73/70 54/74/54
f 53/62/53 52/66/52 60/70/60 61/75/61
f 50/63/50 49/67/49 57/72/57 58/76/58
f 47/60/47 46/59/46 54/74/54 55/77/55
f 87/78/87 53/62/53 61/75/61
f 51/64/51 50/63/50 58/76/58 59/69/59
f 48/65/48 47/60/47 55/77/55 56/71/56
f 61/75/61 60/70/60 68/79/68 69/80/69
f 58/76/58 57/72/57 65/81/65 66/82/66
f 55/77/55 54/74/54 62/83/62 63/84/63
f 87/85/87 61/75/61 69/80/69
f 59/69/59 58/76/58 66/82/66 67/86/67
f 56/71/56 55/77/55 63/84/63 64/87/64
f 60/70/60 59/69/59 67/86/67 68/79/68
f 57/72/57 56/71/56 64/87/64 65/81/65
f 54/74/54 70/88/70 62/83/62
f 67/86/67 66/82/66 75/89/75 76/90/76
f 64/87/64 63/84/63 72/91/72 73/92/73
f 68/79/68 67/86/67 76/90/76 77/93/77
f 65/81/65 64/87/64 73/92/73 74/94/74
f 62/83/62 70/95/70 71/96/71
f 69/80/69 68/79/68 77/93/77 78/97/78
f 66/82/66 65/81/65 74/94/74 75/89/75
f 63/84/63 62/83/62 71/96/71 72/91/72
f 87/98/87 69/80/69 78/97/78
f 74/94/74 73/92/73 81/99/81 82/100/82
f 71/96/71 70/101/70 79/102/79
f 78/97/78 77/93/77 85/103/85 86/104/86
f 75/89/75 74/94/74 82/100/82 83/105/83
f 72/91/72 71/96/71 79/102/79 80/106/80
f 87/107/87 78/97/78 86/104/86
f 76/90/76 75/89/75 83/105/83 84/108/84
f 73/92/73 72/91/72 80/106/80 81/99/81
f 77/93/77 76/90/76 84/108/84 85/103/85
f 80/106/80 79/102/79 88/109/88 89/110/89
f 87/111/87 86/104/86 95/112/95
f 84/108/84 83/105/83 92/113/92 93/114/93
f 81/99/81 80/106/80 89/110/89 90/115/90
f 85/103/85 84/108/84 93/114/93 94/116/94
f 82/100/82 81/99/81 90/115/90 91/117/91
f 79/102/79 70/118/70 88/109/88
f 86/104/86 85/103/85 94/116/94 95/112/95
f 83/105/83 82/100/82 91/117/91 92/113/92
f 94/116/94 93/114/93 101/119/101 102/120/102
f 91/117/91 90/115/90 98/121/98 99/122/99
f 88/109/88 70/123/70 96/124/96
f 95/112/95 94/116/94 102/120/102 103/125/103
f 92/113/92 91/117/91 99/122/99 100/126/100
f 89/110/89 88/109/88 96/124/96 97/127/97
f 87/128/87 95/112/95 103/125/103
f 93/114/93 92/113/92 100/126/100 101/119/101
f 90/115/90 89/110/89 97/127/97 98/121/98
f 100/129/100 99/130/99 107/131/107 108/132/108
f 97/133/97 96/134/96 104/135/104 105/136/105
f 87/137/87 103/138/103 111/139/111
f 101/140/101 100/129/100 108/132/108 109/141/109
f 98/142/98 97/133/97 105/136/105 106/143/106
f 102/144/102 101/140/101 109/141/109 110/145/110
f 99/130/99 98/142/98 106/143/106 107/131/107
f 96/134/96 70/146/70 104/135/104
f 103/138/103 102/144/102 110/145/110 111/139/111
f 106/143/106 105/136/105 113/147/113 114/148/114
f 110/145/110 109/141/109 117/149/117 118/150/118
f 107/131/107 106/143/106 114/148/114 115/151/115
f 104/135/104 70/152/70 112/153/112
f 111/139/111 110/145/110 118/150/118 119/154/119
f 108/132/108 107/131/107 115/151/115 116/155/116
f 105/136/105 104/135/104 112/153/112 113/147/113
f 87/156/87 111/139/111 119/154/119
f 109/141/109 108/132/108 116/155/116 117/149/117
f 112/153/112 70/157/70 120/158/120
f 119/154/119 118/150/118 126/159/126 127/160/127
f 116/155/116 115/151/115 123/161/123 124/162/124
f 113/147/113 112/153/112 120/158/120 121/163/121
f 87/164/87 119/154/119 127/160/127
f 117/149/117 116/155/116 124/162/124 125/165/125
f 114/148/114 113/147/113 121/163/121 122/166/122
f 118/150/118 117/149/117 125/165/125 126/159/126
f 115/151/115 114/148/114 122/166/122 123/161/123
f 87/167/87 127/160/127 5/6/5
f 125/165/125 124/162/124 3/9/3 4/8/4
f 122/166/122 121/163/121 129/1/129 1/12/1
f 126/159/126 125/165/125 4/8/4 130/14/130
f 123/161/123 122/166/122 1/12/1 2/16/2
f 120/158/120 70/168/70 128/2/128
f 127/160/127 126/159/126 130/14/130 5/6/5
f 124/162/124 123/161/123 2/16/2 3/9/3
f 121/163/121 120/158/120 128/2/128 129/1/129
